<svg viewBox="0 0 200 70" xmlns="http://www.w3.org/2000/svg"><path d="m169.9 0-3.4 3.4-3.5-3.4h-19.7l-3.4 3.4-3.5-3.4h-19.7l-3.4 3.4-3.4-3.4h-19.8l-3.4 3.4-3.4-3.4h-19.7l-3.4 3.4-3.5-3.4h-19.7l-3.4 3.4-3.5-3.4h-30.1l5.6 5.6v55.3l-3.3 9.1 43.8-31.7v-6.6l1.5 1.1v13.4h25.1v-10.4l1.5-1.1v11.5h13.9v-8.3l12.2 8.9 11.6-8.4v7.9h13.9v-13.5l12.7-9.2v12.5l14.7 10.6 11.9-8.6v19.5l17.2 12.4-3.3-9.1v-13.6l15.4-11.2v-30.5l5.6-5.6z" fill="#ffefd5"/><path d="m71.8 53.1 1-2.4 1 2.4zm5.4 3s0-.1 0 0l-3.3-7.5h-2.2l-3.4 7.5h2.3l.5-1.2h3.4l.5 1.2zm61.8-7.4s0-.1 0 0l-1.6-.1v7.5h2.1v-7.5zm21.1 2.8-1.7 1.7h2v1c-.4.3-1.1.4-1.5.4-1.5 0-2-1.2-2-2.2 0-1.5.8-2.2 2-2.2.5 0 1.2.1 1.7.7l1.3-1.2c-.5-.5-.9-.8-1.4-1-.1 0-.2 0-.2-.1-.4-.1-.9-.2-1.4-.2h-.7c-2.4.3-3.5 2.1-3.5 4 0 1.1.4 2.2 1.2 3l.1.1c.7.5 1.6.9 2.8.9 1.5 0 2.8-.5 3.3-1.5v-3.4zm-11.3-1.4v1.1c0 .3 0 .6.1 1.5 0 0-.2.1 0 0l-.9-1.1-.1-.1-2.2-2.9h-1.8v7.6h2.2v-4l3.2 4.1h1.8v-7.5h-2.2v1.3" fill="#ffefd5"/><path d="m6.8 63.4.9-2.6v-56.2l-2.3-2.4h23.6l3.5 3.5v9.4h-9.4v-3.6h-6v33l6-4.4v-6.4h-3.6v-9.3h13v20.5zm52.3-57.7-3.5-3.4h-17.8l-3.5 3.4v37.9l9.4-6.8v-9.8l6 4.3v12.2h9.4v-16.8l-4.4-3.2 4.4-3.2zm-9.4 9.9-6 4.3v-8.4l6.1.1zm37.8-9.9 3.4-3.5h17.9l3.4 3.5v9.4h-9.3v-3.6h-6.1v1.9l15.4 11.1v10.4l-12 8.7-12.7-9.2v-7.7h9.3v3l6.1 4.3v-4.6l-15.4-11.2zm83.2-3.5-3.5 3.4v50.4l10.3 7.4-.9-2.6v-15l15.4-11.1v-30.1l2.4-2.4zm11.9 27.7-6 4.3v-22.7h6zm-20.7-27.7h-17.8l-3.5 3.4v29l12.4 8.9 12.4-8.9v-29zm-5.9 27.7-6 4.3v-22.7h6zm-20.7-27.7h-17.8l-3.5 3.5v37.9h9.4v-12.2l15.4-11.1v-14.6zm-5.9 13.4-6 4.3v-8.4h6zm-47.2-13.4h-17.8l-3.5 3.4v37.9h9.4v-9.2l6-4.3v13.6c0 .2 9.4 0 9.4 0v-37.9zm-5.9 16.3-6 4.3v-11.3h6z" fill="#011e25"/><path d="m133.1 48.6h-5.9v1.8h2.2v5.8h.2c0-.1.1-.1.1-.2 0 .1.1.1.2.1v.1h1.7v-.8c-.1-.1-.2-.1-.2-.2.2 0 .1.1.2.1v-5h2.3v-1.7zm-13.2 5.8v-1.2h3.6v-1.7h-3.6v-1.1h3.8v-1.8h-6v7.6h6.1v-1.8zm-10.1 0v-1.2h3.6v-1.7h-3.6v-1.1h3.9v-1.8h-6v7.6h6.1v-1.8zm-57.4 0v-1.2h3.6v-1.7h-3.6v-1.1h3.8v-1.8h-6v7.6h6.1v-1.8zm48.8-5.8-2 2.6-2-2.6h-2.2v7.6h2.1v-4.5l2.1 2.5 2.1-2.5v4.5h2.2v-7.6zm-57.5 0-2 2.6-2-2.6h-2.2v7.6h2.1v-4.5l2.1 2.5 2.2-2.5v4.5h2.1v-7.6zm39.1 5.8h-.1v-5.8h-2.1v7.6h5.8v-1.8zm-16.7-5.8h-6.4v1.8h2.2v5.8h2.1v-5.8h2.3v-1.8z" fill="#ffefd5"/></svg>